<?xml version="1.0" encoding="utf-8"?>
<!-- Generated by IcoMoon.io -->
<!DOCTYPE svg PUBLIC "-//W3C//DTD SVG 1.1//EN" "http://www.w3.org/Graphics/SVG/1.1/DTD/svg11.dtd">
<svg version="1.1" xmlns="http://www.w3.org/2000/svg" xmlns:xlink="http://www.w3.org/1999/xlink" width="24" height="24" viewBox="0 0 24 24">
<g id="icomoon-ignore">
</g>
<path d="M16.591 11.359c0.879-1.044 1.409-2.391 1.409-3.859 0-3.308-2.692-6-6-6h-7.5v21h9c3.308 0 6-2.692 6-6 0-2.179-1.167-4.090-2.909-5.141zM9 4.5h2.379c1.312 0 2.379 1.346 2.379 3s-1.067 3-2.379 3h-2.379v-6zM12.727 19.5h-3.727v-6h3.727c1.37 0 2.484 1.346 2.484 3s-1.114 3-2.484 3z" fill="#000000"></path>
</svg>
