<?xml version="1.0" encoding="utf-8"?>
<!-- Generated by IcoMoon.io -->
<!DOCTYPE svg PUBLIC "-//W3C//DTD SVG 1.1//EN" "http://www.w3.org/Graphics/SVG/1.1/DTD/svg11.dtd">
<svg version="1.1" xmlns="http://www.w3.org/2000/svg" xmlns:xlink="http://www.w3.org/1999/xlink" width="27" height="24" viewBox="0 0 27 24">
<g id="icomoon-ignore">
</g>
<path d="M25.5 21.121c0 1.066 0.61 1.99 1.5 2.442v0.374c-0.249 0.034-0.503 0.052-0.762 0.052-1.594 0-3.032-0.669-4.048-1.741-0.615 0.164-1.266 0.252-1.94 0.252-3.728 0-6.75-2.686-6.75-6s3.022-6 6.75-6c3.728 0 6.75 2.686 6.75 6 0 1.297-0.463 2.498-1.251 3.48-0.16 0.347-0.249 0.734-0.249 1.141zM12 0c6.526 0 11.836 4.233 11.996 9.504-1.153-0.514-2.428-0.786-3.746-0.786-2.24 0-4.355 0.784-5.956 2.207-1.66 1.476-2.575 3.455-2.575 5.574 0 1.047 0.224 2.060 0.65 2.995-0.123 0.003-0.245 0.005-0.369 0.005-0.636 0-1.261-0.041-1.871-0.118-2.578 2.578-5.654 3.040-8.629 3.108v-0.631c1.606-0.787 3-2.22 3-3.859 0-0.229-0.018-0.453-0.051-0.673-2.714-1.787-4.449-4.518-4.449-7.577 0-5.385 5.373-9.75 12-9.75z" fill="#000000"></path>
</svg>
