<?xml version="1.0" encoding="utf-8"?>
<!-- Generated by IcoMoon.io -->
<!DOCTYPE svg PUBLIC "-//W3C//DTD SVG 1.1//EN" "http://www.w3.org/Graphics/SVG/1.1/DTD/svg11.dtd">
<svg version="1.1" xmlns="http://www.w3.org/2000/svg" xmlns:xlink="http://www.w3.org/1999/xlink" width="24" height="24" viewBox="0 0 24 24">
<g id="icomoon-ignore">
</g>
<path d="M23.846 9.691l-9.445-9.252c-0.327-0.32-0.889-0.288-1.257 0.072l-12.783 12.522c-0.367 0.36-0.401 0.911-0.074 1.231l9.445 9.253c0.111 0.109 0.254 0.162 0.402 0.19 0.165 0.143 0.38 0.231 0.617 0.231h11.416c0.519 0 0.941-0.413 0.941-0.922s-0.421-0.922-0.941-0.922h-9.802l11.406-11.173c0.367-0.36 0.4-0.911 0.074-1.231v0zM14.814 17.38l-8.262-8.094-1.33 1.303 8.262 8.094-3.012 2.95-8.263-8.093 11.452-11.219 8.263 8.094-7.11 6.965z" fill="#000000"></path>
</svg>
