<?xml version="1.0" encoding="UTF-8" standalone="no"?>
<svg width="22px" height="18px" viewBox="0 0 22 18" version="1.1" xmlns="http://www.w3.org/2000/svg" xmlns:xlink="http://www.w3.org/1999/xlink" xmlns:sketch="http://www.bohemiancoding.com/sketch/ns">
    <!-- Generator: Sketch 3.2 (9964) - http://www.bohemiancoding.com/sketch -->
    <title>icon-arrow-left copia</title>
    <desc>Created with Sketch.</desc>
    <defs></defs>
    <g id="Page-1" stroke="none" stroke-width="1" fill="none" fill-rule="evenodd" sketch:type="MSPage">
        <g id="icon-arrow-left-copia" sketch:type="MSLayerGroup" transform="translate(-1.000000, -3.000000)">
            <g id="icomoon-ignore"></g>
            <path d="M1.939,10.939 C1.353,11.525 1.353,12.475 1.939,13.06 L9.439,20.56 C10.025,21.146 10.975,21.146 11.56,20.56 C12.145,19.974 12.146,19.024 11.56,18.439 L6.621,13.5 L21,13.5 C21.828,13.5 22.5,12.828 22.5,12 C22.5,11.172 21.828,10.5 21,10.5 L6.621,10.5 L11.56,5.561 C11.853,5.268 11.999,4.884 11.999,4.5 C11.999,4.116 11.853,3.732 11.56,3.439 C10.974,2.853 10.024,2.853 9.439,3.439 L1.939,10.939 Z" id="Shape" fill="#FFFFFF" sketch:type="MSShapeGroup"></path>
        </g>
    </g>
</svg>