<?xml version="1.0" encoding="utf-8"?>
<!-- Generated by IcoMoon.io -->
<!DOCTYPE svg PUBLIC "-//W3C//DTD SVG 1.1//EN" "http://www.w3.org/Graphics/SVG/1.1/DTD/svg11.dtd">
<svg version="1.1" xmlns="http://www.w3.org/2000/svg" xmlns:xlink="http://www.w3.org/1999/xlink" width="24" height="24" viewBox="0 0 24 24">
<g id="icomoon-ignore">
</g>
<path d="M20.016 0h-16.031c-2.191 0-3.984 1.793-3.984 3.984v16.031c0 2.191 1.793 3.984 3.984 3.984h16.031c2.191 0 3.984-1.793 3.984-3.984v-16.031c0-2.191-1.793-3.984-3.984-3.984zM7.683 10.5h8.634c0.164 0.47 0.253 0.975 0.253 1.5 0 2.52-2.050 4.57-4.57 4.57s-4.57-2.050-4.57-4.57c0-0.525 0.089-1.030 0.253-1.5zM21 10.501v8.999c0 0.825-0.675 1.5-1.5 1.5h-15c-0.825 0-1.5-0.675-1.5-1.5v-9h2.346c-0.109 0.483-0.167 0.985-0.167 1.5 0 3.761 3.060 6.82 6.82 6.82s6.82-3.060 6.82-6.82c0-0.515-0.058-1.017-0.167-1.5l2.346 0.001zM21 5.25c0 0.412-0.337 0.75-0.75 0.75h-1.5c-0.413 0-0.75-0.338-0.75-0.75v-1.5c0-0.412 0.337-0.75 0.75-0.75h1.5c0.413 0 0.75 0.338 0.75 0.75v1.5z" fill="#130502"></path>
</svg>
