<?xml version="1.0" encoding="utf-8"?>
<!-- Generated by IcoMoon.io -->
<!DOCTYPE svg PUBLIC "-//W3C//DTD SVG 1.1//EN" "http://www.w3.org/Graphics/SVG/1.1/DTD/svg11.dtd">
<svg version="1.1" xmlns="http://www.w3.org/2000/svg" xmlns:xlink="http://www.w3.org/1999/xlink" width="24" height="24" viewBox="0 0 24 24">
<g id="icomoon-ignore">
</g>
<path d="M12 0c-6.616 0-12 5.383-12 12s5.383 12 12 12c6.617 0 12-5.383 12-12s-5.384-12-12-12v0zM12 22.426c-5.749 0-10.426-4.677-10.426-10.426s4.677-10.426 10.426-10.426c5.749 0 10.427 4.677 10.427 10.426s-4.677 10.426-10.427 10.426v0z" fill="#130502"></path>
<path d="M11.778 7.558c0.579 0 1.049-0.47 1.049-1.049s-0.47-1.049-1.049-1.049c-0.58 0-1.049 0.47-1.049 1.049s0.469 1.049 1.049 1.049v0z" fill="#130502"></path>
<path d="M13.445 16.775h-0.658v-7.501c0-0.435-0.352-0.787-0.787-0.787h-1.446c-0.435 0-0.787 0.352-0.787 0.787s0.352 0.787 0.787 0.787h0.659v6.714h-0.659c-0.435 0-0.787 0.352-0.787 0.787s0.352 0.787 0.787 0.787h2.891c0.435 0 0.787-0.352 0.787-0.787s-0.352-0.787-0.787-0.787v0z" fill="#130502"></path>
</svg>
