<?xml version="1.0" encoding="utf-8"?>
<!-- Generated by IcoMoon.io -->
<!DOCTYPE svg PUBLIC "-//W3C//DTD SVG 1.1//EN" "http://www.w3.org/Graphics/SVG/1.1/DTD/svg11.dtd">
<svg version="1.1" xmlns="http://www.w3.org/2000/svg" xmlns:xlink="http://www.w3.org/1999/xlink" width="24" height="24" viewBox="0 0 24 24">
<g id="icomoon-ignore">
</g>
<path d="M12 0c-6.627 0-12 5.373-12 12s5.373 12 12 12 12-5.373 12-12-5.373-12-12-12zM7.5 12c0-2.485 2.015-4.5 4.5-4.5s4.5 2.015 4.5 4.5-2.015 4.5-4.5 4.5-4.5-2.015-4.5-4.5zM21.703 16.019v0l-4.158-1.722c0.293-0.707 0.456-1.483 0.456-2.297s-0.162-1.589-0.456-2.297l4.158-1.722c0.513 1.238 0.797 2.595 0.797 4.019s-0.284 2.781-0.797 4.019v0zM16.019 2.297v0 0l-1.722 4.158c-0.707-0.293-1.483-0.456-2.297-0.456s-1.589 0.162-2.297 0.456l-1.722-4.158c1.238-0.513 2.595-0.797 4.019-0.797s2.781 0.284 4.019 0.797zM2.297 7.981l4.158 1.722c-0.293 0.707-0.456 1.483-0.456 2.297s0.162 1.589 0.456 2.297l-4.158 1.722c-0.513-1.238-0.797-2.595-0.797-4.019s0.284-2.781 0.797-4.019zM7.981 21.703l1.722-4.158c0.707 0.293 1.483 0.456 2.297 0.456s1.589-0.162 2.297-0.456l1.722 4.158c-1.238 0.513-2.595 0.797-4.019 0.797s-2.781-0.284-4.019-0.797z" fill="#130502"></path>
</svg>
