<?xml version="1.0" encoding="utf-8"?>
<!-- Generated by IcoMoon.io -->
<!DOCTYPE svg PUBLIC "-//W3C//DTD SVG 1.1//EN" "http://www.w3.org/Graphics/SVG/1.1/DTD/svg11.dtd">
<svg version="1.1" xmlns="http://www.w3.org/2000/svg" xmlns:xlink="http://www.w3.org/1999/xlink" width="24" height="24" viewBox="0 0 24 24">
<g id="icomoon-ignore">
</g>
<path d="M22.345 1.749l-0.094-0.095c-2.207-2.206-5.817-2.206-8.023 0l-5.112 5.113c-2.206 2.206-2.206 5.817 0 8.023l0.094 0.094c0.184 0.184 0.378 0.35 0.58 0.503l1.871-1.871c-0.218-0.129-0.425-0.283-0.612-0.47l-0.095-0.095c-1.198-1.198-1.198-3.147 0-4.345l5.112-5.112c1.198-1.198 3.147-1.198 4.345 0l0.095 0.094c1.198 1.198 1.198 3.147 0 4.345l-2.313 2.313c0.402 0.992 0.592 2.048 0.575 3.103l3.577-3.577c2.206-2.206 2.206-5.817-0-8.023zM14.79 9.116c-0.184-0.184-0.378-0.35-0.58-0.503l-1.871 1.871c0.218 0.129 0.425 0.283 0.612 0.47l0.095 0.095c1.198 1.198 1.198 3.147 0 4.345l-5.112 5.113c-1.198 1.198-3.147 1.198-4.345 0l-0.095-0.095c-1.198-1.198-1.198-3.147 0-4.345l2.313-2.313c-0.402-0.992-0.592-2.048-0.575-3.103l-3.577 3.577c-2.206 2.206-2.206 5.817 0 8.023l0.094 0.095c2.207 2.206 5.817 2.206 8.023 0l5.112-5.112c2.206-2.206 2.206-5.817 0-8.023l-0.094-0.094z" fill="#130502"></path>
</svg>
