<?xml version="1.0" encoding="utf-8"?>
<!-- Generated by IcoMoon.io -->
<!DOCTYPE svg PUBLIC "-//W3C//DTD SVG 1.1//EN" "http://www.w3.org/Graphics/SVG/1.1/DTD/svg11.dtd">
<svg version="1.1" xmlns="http://www.w3.org/2000/svg" xmlns:xlink="http://www.w3.org/1999/xlink" width="24" height="24" viewBox="0 0 24 24">
<g id="icomoon-ignore">
</g>
<path d="M21.75 13.5c1.711 0 0.75 4.5-0.75 4.5 0.75 0 0 3.75-1.5 3.75 0 1.5-1.5 2.25-3 2.25-6.336 0-4.108-1.586-10.5-2.25v-12c5.647-1.694 11.25-5.94 11.25-9.75 1.242 0 4.5 1.5 0 9 0 0 3.75 0 4.5 0 2.25 0 1.5 4.5 0 4.5zM4.5 9.75v12h1.5v0.75h-3c-0.825 0-1.5-1.013-1.5-2.25v-9c0-1.238 0.675-2.25 1.5-2.25h3v0.75h-1.5z" fill="#130502"></path>
</svg>
