<?xml version="1.0" encoding="utf-8"?>
<!-- Generated by IcoMoon.io -->
<!DOCTYPE svg PUBLIC "-//W3C//DTD SVG 1.1//EN" "http://www.w3.org/Graphics/SVG/1.1/DTD/svg11.dtd">
<svg version="1.1" xmlns="http://www.w3.org/2000/svg" xmlns:xlink="http://www.w3.org/1999/xlink" width="24" height="24" viewBox="0 0 24 24">
<g id="icomoon-ignore">
</g>
<path d="M18.75 9.75c-1.654 0-3 1.346-3 3s1.346 3 3 3c1.654 0 3-1.346 3-3s-1.346-3-3-3zM18.75 7.5v0c2.899 0 5.25 2.351 5.25 5.25s-2.351 5.25-5.25 5.25c-2.899 0-5.25-2.351-5.25-5.25s2.351-5.25 5.25-5.25zM0 12.75c0-2.899 2.35-5.25 5.25-5.25s5.25 2.351 5.25 5.25c0 2.899-2.351 5.25-5.25 5.25s-5.25-2.351-5.25-5.25z" fill="#130502"></path>
</svg>
