<?xml version="1.0" encoding="utf-8"?>
<!-- Generated by IcoMoon.io -->
<!DOCTYPE svg PUBLIC "-//W3C//DTD SVG 1.1//EN" "http://www.w3.org/Graphics/SVG/1.1/DTD/svg11.dtd">
<svg version="1.1" xmlns="http://www.w3.org/2000/svg" xmlns:xlink="http://www.w3.org/1999/xlink" width="24" height="24" viewBox="0 0 24 24">
<path d="M12 0c-6.627 0-12 5.373-12 12s5.373 12 12 12 12-5.373 12-12-5.373-12-12-12zM18.896 8.463c0.007 0.153 0.010 0.306 0.010 0.46 0 4.702-3.579 10.124-10.124 10.124-2.009 0-3.88-0.589-5.455-1.599 0.278 0.033 0.562 0.050 0.849 0.050 1.667 0 3.201-0.569 4.419-1.523-1.557-0.029-2.871-1.058-3.324-2.471 0.217 0.041 0.44 0.064 0.67 0.064 0.325 0 0.639-0.043 0.937-0.125-1.628-0.327-2.854-1.765-2.854-3.489 0-0.015 0-0.030 0-0.045 0.48 0.266 1.028 0.427 1.612 0.445-0.955-0.638-1.583-1.727-1.583-2.962 0-0.652 0.176-1.263 0.482-1.789 1.755 2.153 4.377 3.569 7.334 3.718-0.061-0.261-0.092-0.532-0.092-0.811 0-1.965 1.593-3.558 3.558-3.558 1.023 0 1.948 0.432 2.597 1.124 0.81-0.16 1.572-0.456 2.26-0.863-0.266 0.831-0.83 1.528-1.564 1.969 0.72-0.086 1.405-0.277 2.044-0.56-0.477 0.714-1.080 1.34-1.776 1.842z" fill="#5c5250"></path>
</svg>
