<?xml version="1.0" encoding="utf-8"?>
<!-- Generated by IcoMoon.io -->
<!DOCTYPE svg PUBLIC "-//W3C//DTD SVG 1.1//EN" "http://www.w3.org/Graphics/SVG/1.1/DTD/svg11.dtd">
<svg version="1.1" xmlns="http://www.w3.org/2000/svg" xmlns:xlink="http://www.w3.org/1999/xlink" width="24" height="24" viewBox="0 0 24 24">
<g id="icomoon-ignore">
</g>
<path d="M23.781 19.281c-0-0-0-0-0-0l-7.281-7.281 7.281-7.281c0-0 0-0 0-0 0.078-0.078 0.135-0.17 0.171-0.268 0.1-0.267 0.043-0.578-0.172-0.793l-3.439-3.439c-0.214-0.214-0.526-0.271-0.793-0.172-0.098 0.036-0.189 0.093-0.268 0.171 0 0-0 0-0 0l-7.281 7.281-7.281-7.281c-0-0-0-0-0-0-0.078-0.078-0.17-0.135-0.268-0.171-0.267-0.1-0.578-0.043-0.793 0.172l-3.439 3.439c-0.214 0.214-0.271 0.526-0.172 0.793 0.036 0.098 0.093 0.189 0.171 0.268 0 0 0 0 0 0l7.281 7.281-7.281 7.281c-0 0-0 0-0 0-0.078 0.078-0.135 0.17-0.171 0.268-0.1 0.267-0.043 0.578 0.172 0.793l3.439 3.439c0.214 0.214 0.526 0.271 0.793 0.172 0.098-0.036 0.189-0.093 0.268-0.171 0-0 0-0 0-0l7.281-7.281 7.281 7.281c0 0 0 0 0 0 0.078 0.078 0.17 0.135 0.268 0.171 0.267 0.1 0.579 0.043 0.793-0.172l3.439-3.439c0.214-0.214 0.271-0.526 0.172-0.793-0.036-0.097-0.093-0.189-0.171-0.268z" fill="#130502"></path>
</svg>
