<?xml version="1.0" encoding="utf-8"?>
<!-- Generated by IcoMoon.io -->
<!DOCTYPE svg PUBLIC "-//W3C//DTD SVG 1.1//EN" "http://www.w3.org/Graphics/SVG/1.1/DTD/svg11.dtd">
<svg version="1.1" xmlns="http://www.w3.org/2000/svg" xmlns:xlink="http://www.w3.org/1999/xlink" width="24" height="24" viewBox="0 0 24 24">
<path d="M19.365 7.408l-7.092 7.547-7.091-7.547c-0.221-0.235-0.514-0.365-0.827-0.365s-0.606 0.129-0.826 0.365c-0.221 0.235-0.343 0.548-0.343 0.88s0.122 0.645 0.342 0.879l7.918 8.427c0.218 0.232 0.519 0.365 0.826 0.365s0.609-0.133 0.826-0.365l7.918-8.427c0.221-0.235 0.343-0.547 0.343-0.88s-0.122-0.645-0.343-0.88c-0.221-0.235-0.514-0.365-0.827-0.365s-0.606 0.129-0.826 0.365v0z" fill="#5c5250"></path>
</svg>
