<?xml version="1.0" encoding="utf-8"?>
<!-- Generated by IcoMoon.io -->
<!DOCTYPE svg PUBLIC "-//W3C//DTD SVG 1.1//EN" "http://www.w3.org/Graphics/SVG/1.1/DTD/svg11.dtd">
<svg version="1.1" xmlns="http://www.w3.org/2000/svg" xmlns:xlink="http://www.w3.org/1999/xlink" width="24" height="24" viewBox="0 0 24 24">
<g id="icomoon-ignore">
</g>
<path d="M18.628 3.338c-0.723-1.44-1.974-2.519-3.524-3.036-0.64-0.214-1.304-0.322-1.975-0.322-2.624 0-4.955 1.638-5.801 4.076-1.008 2.906 0.392 6.051 3.144 7.349l-2.578 7.43-2.679-0.894c-0.387-0.128-0.805 0.074-0.937 0.452s0.075 0.79 0.461 0.919l2.679 0.894-0.991 2.856c-0.131 0.379 0.075 0.79 0.461 0.919 0.079 0.026 0.159 0.039 0.238 0.039 0.307 0 0.594-0.19 0.699-0.491l0.991-2.856 2.679 0.894c0.079 0.026 0.159 0.039 0.238 0.039 0.307 0 0.594-0.19 0.699-0.491 0.131-0.379-0.075-0.79-0.461-0.919l-2.679-0.894 2.578-7.43c0.415 0.086 0.836 0.135 1.26 0.135h0c2.624 0 4.955-1.638 5.801-4.076 0.527-1.52 0.42-3.151-0.303-4.592v0zM17.534 7.463c-0.642 1.851-2.412 3.095-4.403 3.095-0.508 0-1.013-0.082-1.499-0.245-2.428-0.81-3.731-3.408-2.905-5.79 0.642-1.851 2.412-3.095 4.403-3.095 0.508 0 1.013 0.082 1.499 0.245 1.176 0.392 2.126 1.211 2.675 2.305s0.63 2.331 0.23 3.485v0z" fill="#130502"></path>
</svg>
