<?xml version="1.0" encoding="utf-8"?>
<!-- Generated by IcoMoon.io -->
<!DOCTYPE svg PUBLIC "-//W3C//DTD SVG 1.1//EN" "http://www.w3.org/Graphics/SVG/1.1/DTD/svg11.dtd">
<svg version="1.1" xmlns="http://www.w3.org/2000/svg" xmlns:xlink="http://www.w3.org/1999/xlink" width="24" height="24" viewBox="0 0 24 24">
<g id="icomoon-ignore">
</g>
<path d="M23.143 21h-10.286c-0.473 0-0.857 0.448-0.857 1s0.384 1 0.857 1l10.286-0.029c0.473 0 0.857-0.419 0.857-0.971s-0.383-1-0.857-1v0zM11.813 2l11.375-0.002c0.448 0 0.813-0.446 0.813-0.998s-0.364-1-0.813-1h-11.375c-0.449 0-0.813 0.448-0.813 1s0.364 1 0.813 1v0zM12.761 15.686c-0.319-0.338-0.836-0.338-1.154 0l-4.281 5.194v-20.881h-1.626v20.912l-4.307-5.225c-0.319-0.338-0.836-0.338-1.154 0s-0.319 0.884 0 1.221l5.643 6.847c0.17 0.18 0.396 0.256 0.618 0.244 0.223 0.012 0.448-0.064 0.618-0.244l5.643-6.847c0.32-0.337 0.32-0.884 0.002-1.221v0zM23.187 5h-11.375c-0.449 0-0.813 0.45-0.813 1.005s0.364 0.995 0.813 0.995h11.375c0.448 0 0.813-0.441 0.813-0.995s-0.363-1.005-0.813-1.005v0zM23.187 10h-11.375c-0.449 0-0.813 0.448-0.813 1s0.364 0.984 0.813 0.984l11.375 0.016c0.448 0 0.813-0.448 0.813-1 0-0.551-0.363-1-0.813-1v0zM23.2 15h-6.4c-0.442 0-0.8 0.453-0.8 1.011s0.358 0.989 0.8 0.989h6.4c0.442 0 0.8-0.43 0.8-0.989s-0.358-1.011-0.8-1.011v0z" fill="#130502"></path>
</svg>
