<?xml version="1.0" encoding="utf-8"?>
<!-- Generated by IcoMoon.io -->
<!DOCTYPE svg PUBLIC "-//W3C//DTD SVG 1.1//EN" "http://www.w3.org/Graphics/SVG/1.1/DTD/svg11.dtd">
<svg version="1.1" xmlns="http://www.w3.org/2000/svg" xmlns:xlink="http://www.w3.org/1999/xlink" width="24" height="24" viewBox="0 0 24 24">
<g id="icomoon-ignore">
</g>
<path d="M16.355 7.665l-1.522-1.522-7.613 7.611c-1.261 1.261-1.261 3.306 0 4.567s3.306 1.261 4.567 0l9.135-9.134c2.103-2.101 2.103-5.509 0-7.611-2.102-2.102-5.51-2.102-7.612 0l-9.591 9.59c-0.007 0.007-0.014 0.014-0.021 0.020-2.932 2.932-2.932 7.684 0 10.615 2.931 2.931 7.684 2.931 10.617 0 0.006-0.006 0.012-0.013 0.019-0.021l0.001 0.001 6.547-6.546-1.523-1.522-6.547 6.545c-0.007 0.006-0.013 0.013-0.020 0.020-2.088 2.087-5.484 2.087-7.572 0s-2.087-5.483 0-7.57c0.007-0.007 0.014-0.014 0.021-0.020l-0.001-0.001 9.592-9.59c1.259-1.259 3.308-1.259 4.568 0s1.259 3.308 0 4.567l-9.135 9.134c-0.42 0.42-1.103 0.42-1.523 0s-0.419-1.102 0-1.522l7.613-7.612z" fill="#130502"></path>
</svg>
