<?xml version="1.0" encoding="utf-8"?>
<!-- Generated by IcoMoon.io -->
<!DOCTYPE svg PUBLIC "-//W3C//DTD SVG 1.1//EN" "http://www.w3.org/Graphics/SVG/1.1/DTD/svg11.dtd">
<svg version="1.1" xmlns="http://www.w3.org/2000/svg" xmlns:xlink="http://www.w3.org/1999/xlink" width="24" height="24" viewBox="0 0 24 24">
<g id="icomoon-ignore">
</g>
<path d="M13.875 10.5h-0.375v-4.5c0-2.481-2.019-4.5-4.5-4.5h-3c-2.481 0-4.5 2.019-4.5 4.5v4.5h-0.375c-0.619 0-1.125 0.506-1.125 1.125v11.25c0 0.619 0.506 1.125 1.125 1.125h12.75c0.619 0 1.125-0.506 1.125-1.125v-11.25c0-0.619-0.506-1.125-1.125-1.125zM9 21h-3l0.652-3.263c-0.394-0.27-0.653-0.724-0.653-1.237 0-0.828 0.672-1.5 1.5-1.5s1.5 0.672 1.5 1.5c0 0.514-0.259 0.967-0.652 1.237l0.652 3.263zM10.5 10.5h-6v-4.5c0-0.827 0.673-1.5 1.5-1.5h3c0.827 0 1.5 0.673 1.5 1.5v4.5z" fill="#130502"></path>
</svg>
