<?xml version="1.0" encoding="UTF-8" standalone="no"?>
<svg width="22px" height="18px" viewBox="0 0 22 18" version="1.1" xmlns="http://www.w3.org/2000/svg" xmlns:xlink="http://www.w3.org/1999/xlink" xmlns:sketch="http://www.bohemiancoding.com/sketch/ns">
    <!-- Generator: Sketch 3.2 (9964) - http://www.bohemiancoding.com/sketch -->
    <title>icon-arrow-right copia</title>
    <desc>Created with Sketch.</desc>
    <defs></defs>
    <g id="Page-1" stroke="none" stroke-width="1" fill="none" fill-rule="evenodd" sketch:type="MSPage">
        <g id="icon-arrow-right-copia" sketch:type="MSLayerGroup" transform="translate(-1.000000, -3.000000)">
            <g id="icomoon-ignore"></g>
            <path d="M14.561,20.561 L22.061,13.061 C22.647,12.475 22.647,11.525 22.061,10.94 L14.561,3.44 C13.975,2.854 13.025,2.854 12.44,3.44 C11.855,4.026 11.854,4.976 12.44,5.561 L17.379,10.5 L3,10.5 C2.172,10.5 1.5,11.172 1.5,12 C1.5,12.828 2.172,13.5 3,13.5 L17.379,13.5 L12.44,18.439 C12.147,18.732 12.001,19.116 12.001,19.5 C12.001,19.884 12.147,20.268 12.44,20.561 C13.026,21.147 13.976,21.147 14.561,20.561 L14.561,20.561 Z" id="Shape" fill="#FFFFFF" sketch:type="MSShapeGroup"></path>
        </g>
    </g>
</svg>