<?xml version="1.0" encoding="utf-8"?>
<!-- Generated by IcoMoon.io -->
<!DOCTYPE svg PUBLIC "-//W3C//DTD SVG 1.1//EN" "http://www.w3.org/Graphics/SVG/1.1/DTD/svg11.dtd">
<svg version="1.1" xmlns="http://www.w3.org/2000/svg" xmlns:xlink="http://www.w3.org/1999/xlink" width="24" height="24" viewBox="0 0 24 24">
<g id="icomoon-ignore">
</g>
<path d="M12 0c-6.617 0-12 5.383-12 12s5.383 12 12 12c6.617 0 12-5.383 12-12s-5.383-12-12-12v0zM12 22.426c-5.749 0-10.426-4.677-10.426-10.426s4.677-10.426 10.426-10.426c5.749 0 10.426 4.677 10.426 10.426s-4.677 10.426-10.426 10.426v0z" fill="#130502"></path>
<path d="M16.344 8.072l-6.188 6.188-2.501-2.501c-0.307-0.307-0.805-0.307-1.113 0s-0.308 0.806 0 1.113l3.058 3.057c0.154 0.153 0.355 0.23 0.556 0.23s0.403-0.077 0.557-0.231c0-0.001 0.001-0.001 0.002-0.002l6.742-6.742c0.308-0.307 0.308-0.806 0-1.113s-0.806-0.307-1.113 0v0z" fill="#130502"></path>
</svg>
