<?xml version="1.0" encoding="utf-8"?>
<!-- Generated by IcoMoon.io -->
<!DOCTYPE svg PUBLIC "-//W3C//DTD SVG 1.1//EN" "http://www.w3.org/Graphics/SVG/1.1/DTD/svg11.dtd">
<svg version="1.1" xmlns="http://www.w3.org/2000/svg" xmlns:xlink="http://www.w3.org/1999/xlink" width="24" height="24" viewBox="0 0 24 24">
<path d="M10.242 19.176c0 1.759-1.087 3.15-4.166 3.262-1.804-1.026-3.316-2.507-4.381-4.286 0.555-1.371 2.29-2.415 4.273-2.393 0.563 0.006 1.088 0.096 1.564 0.251 1.31 0.911 2.367 1.48 2.633 2.518 0.050 0.21 0.077 0.427 0.077 0.648zM12 0c-3.467 0-6.591 1.471-8.781 3.823 0.866-0.479 1.888-0.765 2.974-0.765 1.572 0 6.010 0 6.010 0l-1.343 1.41h-1.578c1.113 0.638 1.705 1.951 1.705 3.399 0 1.329-0.736 2.4-1.776 3.212-1.014 0.792-1.207 1.124-1.207 1.798 0 0.575 1.212 1.432 1.77 1.85 1.941 1.456 2.334 2.372 2.334 4.192 0 1.845-1.616 3.682-4.356 4.306 1.321 0.5 2.752 0.775 4.248 0.775 6.627 0 12-5.373 12-12s-5.373-12-12-12zM18 9v3h-1.5v-3h-3v-1.5h3v-3h1.5v3h3v1.5h-3zM8.573 7.956c0.279 2.128-0.653 3.497-2.272 3.448s-3.16-1.535-3.439-3.662c-0.28-2.128 0.807-3.756 2.426-3.708s3.005 1.794 3.285 3.921zM5.177 15.048c-1.75 0-3.237 0.604-4.285 1.497-0.574-1.402-0.892-2.936-0.892-4.545 0-1.33 0.217-2.61 0.617-3.806 0.173 2.331 1.813 4.13 4.523 4.13 0.2 0 0.393-0.010 0.583-0.024-0.186 0.357-0.319 0.754-0.319 1.171 0 0.702 0.386 1.103 0.864 1.568-0.361 0-0.709 0.010-1.090 0.010z" fill="#5c5250"></path>
</svg>
