<?xml version="1.0" encoding="utf-8"?>
<!-- Generated by IcoMoon.io -->
<!DOCTYPE svg PUBLIC "-//W3C//DTD SVG 1.1//EN" "http://www.w3.org/Graphics/SVG/1.1/DTD/svg11.dtd">
<svg version="1.1" xmlns="http://www.w3.org/2000/svg" xmlns:xlink="http://www.w3.org/1999/xlink" width="24" height="24" viewBox="0 0 24 24">
<g id="icomoon-ignore">
</g>
<path d="M12 0c-6.617 0-12 5.383-12 12s5.383 12 12 12c6.617 0 12-5.383 12-12s-5.383-12-12-12v0zM12 22.426c-5.749 0-10.426-4.677-10.426-10.426s4.677-10.426 10.426-10.426c5.749 0 10.426 4.677 10.426 10.426s-4.677 10.426-10.426 10.426v0z" fill="#130502"></path>
<path d="M12 5.483c-2.111 0-3.827 1.717-3.827 3.828 0 0.435 0.352 0.787 0.787 0.787s0.787-0.352 0.787-0.787c0-1.243 1.011-2.254 2.254-2.254s2.254 1.011 2.254 2.254c0 1.243-1.011 2.254-2.254 2.254-0.435 0-0.787 0.352-0.787 0.787v2.741c0 0.435 0.352 0.787 0.787 0.787s0.787-0.352 0.787-0.787v-2.036c1.734-0.364 3.041-1.905 3.041-3.746 0-2.111-1.717-3.828-3.828-3.828v0z" fill="#130502"></path>
<path d="M12 16.424c-0.545 0-0.988 0.442-0.988 0.988s0.443 0.988 0.988 0.988c0.546 0 0.987-0.442 0.987-0.988s-0.442-0.988-0.987-0.988v0z" fill="#130502"></path>
</svg>
