<?xml version="1.0" encoding="utf-8"?>
<!-- Generated by IcoMoon.io -->
<!DOCTYPE svg PUBLIC "-//W3C//DTD SVG 1.1//EN" "http://www.w3.org/Graphics/SVG/1.1/DTD/svg11.dtd">
<svg version="1.1" xmlns="http://www.w3.org/2000/svg" xmlns:xlink="http://www.w3.org/1999/xlink" width="24" height="24" viewBox="0 0 24 24">
<g id="icomoon-ignore">
</g>
<path d="M13.103 1.5c0 0-4.71 0-6.28 0-2.815 0-5.465 2.133-5.465 4.604 0 2.525 1.919 4.562 4.783 4.562 0.199 0 0.393-0.004 0.582-0.018-0.186 0.356-0.319 0.757-0.319 1.173 0 0.702 0.377 1.271 0.855 1.735-0.361 0-0.709 0.011-1.089 0.011-3.487-0-6.171 2.221-6.171 4.524 0 2.268 2.942 3.687 6.43 3.687 3.976 0 6.171-2.256 6.171-4.524 0-1.819-0.537-2.908-2.196-4.081-0.568-0.402-1.653-1.379-1.653-1.953 0-0.673 0.192-1.005 1.205-1.796 1.039-0.812 1.774-1.952 1.774-3.279 0-1.58-0.704-3.119-2.024-3.627h1.991l1.405-1.016zM10.91 16.862c0.050 0.21 0.077 0.427 0.077 0.648 0 1.833-1.181 3.265-4.57 3.265-2.41 0-4.151-1.526-4.151-3.359 0-1.796 2.159-3.292 4.569-3.266 0.563 0.006 1.087 0.096 1.563 0.251 1.308 0.91 2.247 1.424 2.512 2.461zM7.050 10.026c-1.618-0.048-3.156-1.81-3.435-3.934s0.806-3.751 2.423-3.703c1.617 0.049 3.156 1.753 3.435 3.878s-0.806 3.808-2.423 3.759zM19.5 6v-4.5h-1.5v4.5h-4.5v1.5h4.5v4.5h1.5v-4.5h4.5v-1.5z" fill="#130502"></path>
</svg>
