<?xml version="1.0" encoding="utf-8"?>
<!-- Generated by IcoMoon.io -->
<!DOCTYPE svg PUBLIC "-//W3C//DTD SVG 1.1//EN" "http://www.w3.org/Graphics/SVG/1.1/DTD/svg11.dtd">
<svg version="1.1" xmlns="http://www.w3.org/2000/svg" xmlns:xlink="http://www.w3.org/1999/xlink" width="24" height="24" viewBox="0 0 24 24">
<path d="M16.5 3h-3v-1.5c0-0.825-0.675-1.5-1.5-1.5h-3c-0.825 0-1.5 0.675-1.5 1.5v1.5h-3v3h12v-3zM12 3h-3v-1.497c0.001-0.001 0.002-0.002 0.003-0.003h2.995c0.001 0.001 0.002 0.002 0.003 0.003v1.497zM19.5 7.5v-3.75c0-0.412-0.337-0.75-0.75-0.75h-1.5v1.5h0.75v3h-9v10.5h-6v-13.5h0.75v-1.5h-1.5c-0.413 0-0.75 0.338-0.75 0.75v15c0 0.413 0.337 0.75 0.75 0.75h6.75v4.5h10.5l4.5-4.5v-12h-4.5zM19.5 21.879v-2.379h2.379l-2.379 2.379zM22.5 18h-4.5v4.5h-7.5v-13.5h12v9z" fill="#5c5250"></path>
</svg>
