<?xml version="1.0" encoding="utf-8"?>
<!-- Generated by IcoMoon.io -->
<!DOCTYPE svg PUBLIC "-//W3C//DTD SVG 1.1//EN" "http://www.w3.org/Graphics/SVG/1.1/DTD/svg11.dtd">
<svg version="1.1" xmlns="http://www.w3.org/2000/svg" xmlns:xlink="http://www.w3.org/1999/xlink" width="24" height="24" viewBox="0 0 24 24">
<g id="icomoon-ignore">
</g>
<path d="M16.151 19.214h-12.31v-14.428h12.31c0.241 0 0.437-0.196 0.437-0.437s-0.196-0.437-0.437-0.437h-12.748c-0.241 0-0.437 0.196-0.437 0.437v15.303c0 0.241 0.196 0.437 0.437 0.437h12.748c0.241 0 0.437-0.196 0.437-0.437s-0.196-0.437-0.437-0.437z" fill="#000000"></path>
<path d="M20.905 11.422l-2.696-2.696c-0.171-0.171-0.447-0.171-0.618 0s-0.171 0.447 0 0.618l1.95 1.95h-8.17c-0.241 0-0.437 0.196-0.437 0.437s0.196 0.437 0.437 0.437h8.17l-1.95 1.949c-0.171 0.171-0.171 0.448 0 0.618 0.085 0.085 0.197 0.128 0.309 0.128s0.224-0.043 0.309-0.128l2.696-2.696c0.171-0.171 0.171-0.447 0-0.618z" fill="#000000"></path>
</svg>
