<?xml version="1.0" encoding="utf-8"?>
<!-- Generated by IcoMoon.io -->
<!DOCTYPE svg PUBLIC "-//W3C//DTD SVG 1.1//EN" "http://www.w3.org/Graphics/SVG/1.1/DTD/svg11.dtd">
<svg version="1.1" xmlns="http://www.w3.org/2000/svg" xmlns:xlink="http://www.w3.org/1999/xlink" width="24" height="24" viewBox="0 0 24 24">
<g id="icomoon-ignore">
</g>
<path d="M15.457 0.658c-0.028-0.266-0.204-0.497-0.46-0.606s-0.555-0.081-0.783 0.075l-4.051 2.768c-0.228 0.156-0.351 0.416-0.323 0.681s0.204 0.497 0.46 0.606l1.558 0.666-3.343 7.045c-0.628-0.187-1.278-0.286-1.942-0.286-2.567 0-4.907 1.435-5.961 3.656-0.717 1.51-0.771 3.195-0.153 4.745s1.835 2.777 3.427 3.458c0.851 0.364 1.753 0.548 2.68 0.548h0.001c2.566 0 4.906-1.435 5.961-3.657 0.717-1.51 0.771-3.196 0.153-4.745-0.524-1.313-1.482-2.392-2.73-3.106l3.344-7.046 1.557 0.666c0.103 0.044 0.213 0.066 0.323 0.066h0.008c0.435 0 0.787-0.335 0.787-0.747-0-0.062-0.512-4.788-0.512-4.788v0zM11.208 16.142c0.469 1.176 0.428 2.455-0.116 3.602-0.8 1.686-2.576 2.776-4.525 2.776h-0.001c-0.703-0-1.387-0.14-2.034-0.417-1.208-0.516-2.132-1.449-2.601-2.624s-0.428-2.455 0.116-3.602c0.8-1.686 2.576-2.776 4.526-2.776 0.703 0 1.387 0.14 2.034 0.417 1.208 0.516 2.132 1.448 2.601 2.624v0zM12.189 3.351l1.837-1.256 0.227 2.138-2.064-0.883z" fill="#000000"></path>
</svg>
