<?xml version="1.0" encoding="utf-8"?>
<!-- Generated by IcoMoon.io -->
<!DOCTYPE svg PUBLIC "-//W3C//DTD SVG 1.1//EN" "http://www.w3.org/Graphics/SVG/1.1/DTD/svg11.dtd">
<svg version="1.1" xmlns="http://www.w3.org/2000/svg" xmlns:xlink="http://www.w3.org/1999/xlink" width="24" height="24" viewBox="0 0 24 24">
<g id="icomoon-ignore">
</g>
<path d="M20.25 16.5c-1.058 0-2.014 0.439-2.696 1.144l-10.102-5.051c0.031-0.193 0.047-0.392 0.047-0.594s-0.016-0.4-0.047-0.594l10.102-5.051c0.682 0.705 1.637 1.144 2.696 1.144 2.071 0 3.75-1.679 3.75-3.75s-1.679-3.75-3.75-3.75-3.75 1.679-3.75 3.75c0 0.202 0.017 0.4 0.047 0.594l-10.102 5.051c-0.682-0.705-1.637-1.144-2.696-1.144-2.071 0-3.75 1.679-3.75 3.75s1.679 3.75 3.75 3.75c1.058 0 2.014-0.439 2.696-1.144l10.102 5.051c-0.031 0.193-0.047 0.392-0.047 0.594 0 2.071 1.679 3.75 3.75 3.75s3.75-1.679 3.75-3.75c0-2.071-1.679-3.75-3.75-3.75z" fill="#000000"></path>
</svg>
