<?xml version="1.0" encoding="UTF-8" standalone="no"?>
<svg width="680px" height="201px" viewBox="0 0 680 201" version="1.1" xmlns="http://www.w3.org/2000/svg" xmlns:xlink="http://www.w3.org/1999/xlink" xmlns:sketch="http://www.bohemiancoding.com/sketch/ns">
    <!-- Generator: Sketch 3.2 (9964) - http://www.bohemiancoding.com/sketch -->
    <title>logo_seejay_color</title>
    <desc>Created with Sketch.</desc>
    <defs></defs>
    <g id="Page-1" stroke="none" stroke-width="1" fill="none" fill-rule="evenodd" sketch:type="MSPage">
        <g id="logo_seejay_color" sketch:type="MSLayerGroup" fill="#EF450F">
            <path d="M98.426,122.457 C97.131,127.536 94.537,131.839 90.647,135.358 C86.755,138.88 81.396,141.467 74.58,143.107 C67.759,144.757 59.114,145.581 48.647,145.581 C44.802,145.581 40.768,145.393 36.542,145.033 C32.315,144.663 28.161,144.159 24.08,143.521 C19.998,142.882 16.059,142.127 12.264,141.26 C8.469,140.394 4.605,139.174 0.669,137.621 L4.268,116.492 C12.238,118.503 19.853,120.033 27.105,121.085 C34.357,122.142 41.058,122.667 47.204,122.667 C52.682,122.667 57.003,122.413 60.173,121.913 C63.344,121.412 65.768,120.564 67.447,119.373 C69.127,118.184 70.233,116.492 70.76,114.294 C71.289,112.103 71.558,109.172 71.558,105.515 C71.558,101.949 71.387,99.134 71.05,97.073 C70.712,95.016 69.682,93.282 67.952,91.862 C66.225,90.445 63.438,89.142 59.597,87.95 C55.755,86.764 50.233,85.342 43.024,83.699 C33.995,81.596 26.764,79.425 21.341,77.181 C15.913,74.937 11.785,72.153 8.951,68.812 C6.118,65.472 4.34,61.382 3.622,56.532 C2.9,51.688 2.537,45.693 2.537,38.555 C2.537,32.156 3.357,26.574 4.99,21.818 C6.619,17.062 9.481,13.106 13.562,9.949 C17.644,6.795 23.049,4.417 29.768,2.813 C36.494,1.213 44.661,0.411 54.267,0.411 C61.276,0.411 68.431,0.849 75.733,1.718 C83.033,2.587 90.234,3.893 97.345,5.627 L95.328,27.717 C87.549,26.345 80.08,25.295 72.922,24.564 C65.768,23.833 59.259,23.463 53.4,23.463 C48.307,23.463 44.323,23.766 41.442,24.356 C38.562,24.95 36.375,25.796 34.887,26.891 C33.396,27.989 32.435,29.594 32.007,31.697 C31.571,33.803 31.357,36.315 31.357,39.242 C31.357,42.903 31.499,45.9 31.785,48.229 C32.075,50.56 32.917,52.486 34.311,53.991 C35.703,55.501 37.913,56.803 40.935,57.903 C43.964,59.002 48.452,60.237 54.409,61.61 C64.781,63.985 73.067,66.296 79.263,68.536 C85.456,70.778 90.14,73.453 93.311,76.561 C96.481,79.674 98.447,83.447 99.217,87.882 C99.986,92.322 100.37,97.925 100.37,104.69 C100.37,111.461 99.725,117.385 98.426,122.457 Z" id="Fill-3" sketch:type="MSShapeGroup"></path>
            <path d="M146.771,61.197 L204.113,61.197 L204.113,51.316 C204.113,41.896 202.146,34.807 198.207,30.05 C194.267,25.295 186.92,22.915 176.164,22.915 C165.117,22.915 157.455,25.295 153.181,30.05 C148.908,34.807 146.771,41.896 146.771,51.316 L146.771,61.197 L146.771,61.197 Z M146.771,93.715 C146.771,99.021 147.225,103.55 148.142,107.296 C149.049,111.051 150.638,114.019 152.895,116.213 C155.151,118.415 158.348,120.033 162.476,121.085 C166.604,122.142 172.032,122.667 178.758,122.667 C185.673,122.667 192.925,122.094 200.514,120.951 C208.1,119.809 216.651,118.049 226.16,115.673 L229.762,137.074 C221.788,139.908 213.263,142.033 204.186,143.455 C195.108,144.873 185.959,145.581 176.737,145.581 C165.788,145.581 156.519,144.369 148.933,141.943 C141.344,139.523 135.241,136.047 130.634,131.512 C126.023,126.985 122.707,121.546 120.693,115.187 C118.677,108.83 117.668,101.766 117.668,93.989 L117.668,52.965 C117.668,45.739 118.629,38.991 120.549,32.725 C122.468,26.46 125.664,20.88 130.13,15.986 C134.596,11.089 140.622,7.274 148.211,4.526 C155.797,1.788 165.117,0.411 176.164,0.411 C187.113,0.411 196.262,1.854 203.609,4.736 C210.959,7.616 216.724,11.48 220.903,16.331 C225.082,21.178 228.032,26.779 229.762,33.135 C231.493,39.498 232.356,46.286 232.356,53.513 L232.356,83.561 L146.771,83.561 L146.771,93.715 L146.771,93.715 Z" id="Fill-4" sketch:type="MSShapeGroup"></path>
            <path d="M280.676,61.197 L338.021,61.197 L338.021,51.316 C338.021,41.896 336.052,34.807 332.115,30.05 C328.176,25.295 320.826,22.915 310.069,22.915 C299.022,22.915 291.363,25.295 287.086,30.05 C282.813,34.807 280.676,41.896 280.676,51.316 L280.676,61.197 L280.676,61.197 Z M280.676,93.715 C280.676,99.021 281.133,103.55 282.047,107.296 C282.954,111.051 284.543,114.019 286.803,116.213 C289.056,118.415 292.252,120.033 296.381,121.085 C300.513,122.142 305.937,122.667 312.663,122.667 C319.578,122.667 326.83,122.094 334.419,120.951 C342.005,119.809 350.556,118.049 360.064,115.673 L363.671,137.074 C355.693,139.908 347.168,142.033 338.094,143.455 C329.018,144.873 319.864,145.581 310.646,145.581 C299.697,145.581 290.424,144.369 282.834,141.943 C275.249,139.523 269.15,136.047 264.542,131.512 C259.932,126.985 256.616,121.546 254.599,115.187 C252.582,108.83 251.573,101.766 251.573,93.989 L251.573,52.965 C251.573,45.739 252.534,38.991 254.457,32.725 C256.376,26.46 259.565,20.88 264.035,15.986 C268.504,11.089 274.53,7.274 282.12,4.526 C289.702,1.788 299.022,0.411 310.069,0.411 C321.021,0.411 330.167,1.854 337.521,4.736 C344.867,7.616 350.629,11.48 354.808,16.331 C358.983,21.178 361.94,26.779 363.671,33.135 C365.397,39.498 366.265,46.286 366.265,53.513 L366.265,83.561 L280.676,83.561 L280.676,93.715 L280.676,93.715 Z" id="Fill-5" sketch:type="MSShapeGroup"></path>
            <path d="M413.678,3.292 L413.678,150.109 C413.678,154.955 413.391,159.027 412.817,162.321 C412.241,165.611 410.822,168.858 408.569,172.065 C406.306,175.261 402.921,178.921 398.408,183.039 C393.891,187.153 387.027,193.008 377.802,200.602 L362.535,181.388 C368.971,175.903 373.753,171.739 376.873,168.905 C379.992,166.068 382.253,163.626 383.643,161.566 C385.035,159.512 385.877,157.542 386.167,155.666 C386.454,153.787 386.599,151.48 386.599,148.738 L386.599,3.292 L413.678,3.292" id="Fill-6" sketch:type="MSShapeGroup"></path>
            <path d="M604.134,142.131 L584.202,197.72 L612.018,197.72 L680,0.72 L651.924,0.72 L617.416,102.179 L582.385,0.72 L554.835,0.72 L604.134,142.131" id="Fill-7" sketch:type="MSShapeGroup"></path>
            <path d="M478.199,123.241 C455.682,125.29 457.292,102.632 457.292,102.632 C457.292,82.66 478.525,82.72 478.525,82.72 L514,82.72 L514,110.841 C514,110.841 505.67,120.744 478.199,123.241 L478.199,123.241 Z M539.651,26.619 C537.732,20.949 534.307,16.148 529.84,12.211 C525.371,8.279 519.393,5.331 512.145,3.361 C504.889,1.398 495.973,0.411 485.502,0.411 C477.723,0.411 469.501,0.981 460.907,2.128 C454.435,2.988 448.103,4.067 441.936,5.367 L445.364,27.106 C447.279,26.776 449.091,26.474 450.796,26.209 C454.301,25.66 457.951,25.201 461.742,24.834 C465.541,24.47 469.311,24.151 473.055,23.871 C476.799,23.601 480.405,23.463 483.858,23.463 C494.902,23.463 503.036,24.97 507.215,27.989 C511.395,31.013 514,36.725 514,45.143 L514,60.72 L481.326,60.72 C459.835,60.72 450.584,65.254 442.802,71.292 C435.023,77.331 430.692,90.447 430.692,104.991 C430.692,117.337 433.79,127.187 439.986,134.548 C446.184,141.909 456.486,145.588 470.889,145.588 C480.017,145.588 488.684,144.461 496.897,142.223 C505.111,139.981 511.427,136.839 515.846,133.908 L516.996,141.72 L543,141.72 L543,46.241 C543,38.831 541.57,32.292 539.651,26.619 L539.651,26.619 Z" id="Fill-8" sketch:type="MSShapeGroup"></path>
        </g>
    </g>
</svg>